<?xml version="1.0" encoding="UTF-8" standalone="no"?>
<!DOCTYPE svg PUBLIC "-//W3C//DTD SVG 1.1//EN" "http://www.w3.org/Graphics/SVG/1.1/DTD/svg11.dtd">
<svg width="100%" height="100%" viewBox="0 0 618 479" version="1.1" xmlns="http://www.w3.org/2000/svg" xmlns:xlink="http://www.w3.org/1999/xlink" xml:space="preserve" xmlns:serif="http://www.serif.com/" style="fill-rule:evenodd;clip-rule:evenodd;stroke-linecap:round;stroke-linejoin:round;stroke-miterlimit:1.5;">
    <g transform="matrix(1,0,0,1,-4484.373545,-496.314409)">
        <g transform="matrix(1,0,0,1,3292.102269,205.486059)">
            <path d="M1794.011,411.16C1792.081,412.444 1777.047,422.447 1765.675,429.898C1751.041,439.486 1726.24,464.315 1660.194,466.421C1659.646,466.438 1659.099,466.456 1658.553,466.474C1660.221,513.877 1610.445,529.851 1610.445,529.851C1610.445,529.851 1613.118,513.783 1595.937,488.391C1583.402,528.702 1566.039,568.664 1484.075,574.782C1513.355,528.609 1521.081,529.364 1528.61,481.374C1247.184,542.923 1357.825,766.791 1357.825,766.791C1357.825,766.791 1327.133,729.958 1303.608,721.116C1299.432,719.546 1194.355,754.725 1194.355,754.725C1194.355,754.725 1225.649,712.195 1273.171,663.428C1321.659,613.669 1281.13,615.767 1288.147,537.1C1300.096,403.145 1405.023,371.765 1293.729,324.776C1335.905,311.458 1370.46,301.453 1427.163,309.03C1433.19,309.835 1485.898,316.878 1503.124,311.921C1689.808,258.193 1709.353,331.209 1788.171,372.445C1846.346,402.881 1762.308,413.791 1701.743,405.867C1652.917,399.479 1647.445,403.999 1647.445,403.999L1683.248,412.046C1758.283,432.707 1791.144,413.017 1794.011,411.16ZM1794.011,411.16C1794.147,411.069 1794.217,411.022 1794.217,411.022C1794.217,411.022 1794.149,411.07 1794.011,411.16Z" style="fill:rgb(137,147,190);stroke:black;stroke-width:4.17px;"/>
            <g transform="matrix(1.802916,0,0,1.802916,-1148.851438,-920.041347)">
                <circle cx="1529.236" cy="710.445" r="14.445"/>
            </g>
            <g transform="matrix(0.46753,0,0,0.46753,886.515886,21.923226)">
                <circle cx="1529.236" cy="710.445" r="14.445" style="fill:white;stroke:black;stroke-width:5.35px;"/>
            </g>
            <g transform="matrix(0.65988,0,0,0.65988,608.653511,-105.198518)">
                <circle cx="1529.236" cy="710.445" r="14.445" style="fill:white;stroke:black;stroke-width:3.79px;"/>
            </g>
        </g>
    </g>
</svg>
