<?xml version="1.0" encoding="UTF-8" standalone="no"?>
<!DOCTYPE svg PUBLIC "-//W3C//DTD SVG 1.1//EN" "http://www.w3.org/Graphics/SVG/1.1/DTD/svg11.dtd">
<svg width="100%" height="100%" viewBox="0 0 3001 1783" version="1.1" xmlns="http://www.w3.org/2000/svg" xmlns:xlink="http://www.w3.org/1999/xlink" xml:space="preserve" xmlns:serif="http://www.serif.com/" style="fill-rule:evenodd;clip-rule:evenodd;stroke-linejoin:round;stroke-miterlimit:2;">
    <g transform="matrix(1,0,0,1,-3196,0)">
        <g>
            <path d="M6196,1635.226L6196,1783L3196,1783L3196,1314L6196,1314L6196,1635.226Z" style="fill:rgb(16,129,204);"/>
            <path d="M6196,1079.881L6196,1635.226C6059.921,1623.974 5886,1509.221 5886,1509.221C5592.532,1353.423 5151,1543 5151,1543C4845.547,1689.762 4410,1509.221 4410,1509.221C4052.385,1382.6 3564.228,1608.712 3557,1610C3327.57,1650.886 3196,1509.221 3196,1509.221L3196,1079.881L6196,1079.881Z" style="fill:rgb(51,159,254);"/>
            <path d="M3196,849L3196,1079.881C3196,1079.881 3412.141,1088.825 3611,1151C3611,1151 4005.282,1287.778 4258,1188C4258,1188 4729.188,1032.012 5128,1154C5128,1154 5644.297,1297.122 5902,1194C5902,1194 6062.719,1132.622 6196,1149L6196,859L5433,657L4911,751L4492,753L3840,762L3330,715.435L3196,715.435L3196,1079.881" style="fill:rgb(50,187,255);"/>
            <g transform="matrix(1,0,0,1,0,-1490.45309)">
                <rect x="3196" y="1490.453" width="3000" height="761.547" style="fill:rgb(53,237,255);"/>
            </g>
            <path d="M3196,519C3196,519 3424.969,439.434 3833,597C3833,597 4306.547,813.387 4637,668C4637,668 5555.485,325.559 5785,577C5785,577 5947.688,749.715 6196,725L6196,946C6196,946 6008.985,953.903 5710,819C5710,819 5338.063,693.028 5132,829C5132,829 4913.532,987.153 4643,878C4643,878 4188.313,711.106 3913,851C3913,851 3671.922,972.84 3449,884C3449,884 3289.438,842.028 3196,854L3196,519Z" style="fill:rgb(58,213,254);"/>
        </g>
    </g>
</svg>
