<?xml version="1.0" encoding="UTF-8" standalone="no"?>
<!DOCTYPE svg PUBLIC "-//W3C//DTD SVG 1.1//EN" "http://www.w3.org/Graphics/SVG/1.1/DTD/svg11.dtd">
<svg width="100%" height="100%" viewBox="0 0 616 578" version="1.1" xmlns="http://www.w3.org/2000/svg" xmlns:xlink="http://www.w3.org/1999/xlink" xml:space="preserve" xmlns:serif="http://www.serif.com/" style="fill-rule:evenodd;clip-rule:evenodd;stroke-linecap:round;stroke-linejoin:round;stroke-miterlimit:1.5;">
    <g transform="matrix(1,0,0,1,-3576.083144,-812.197501)">
        <g transform="matrix(1,0,0,1,1237.102269,627.938541)">
            <g transform="matrix(1,0,0,1,22.123357,-43.807858)">
                <path d="M2537.555,393.171C2527.998,380.757 2504.487,362.371 2511.836,299.999C2520.815,223.786 2604.318,229.733 2655.492,230.608C2690.939,231.214 2713.698,252.115 2717.648,255.743C2748.685,284.247 2745.748,361.547 2706.206,403.035C2645.857,466.354 2757.801,441.995 2767.872,411.011C2800.618,455.603 2751.555,490.28 2738.507,503.225C2772.939,479.258 2848.834,496.809 2911.689,523.448C2880.031,522.674 2850.995,511.134 2816.669,554.603C2763.415,622.042 2728.025,569.803 2717.568,564.933C2755.535,605.516 2871.9,624.616 2894.299,610.353C2932.186,586.228 2929.357,562.014 2929.836,559.21C2931.664,566.925 2919.09,659.267 2881.753,674.259C2844.415,689.251 2754.63,666.575 2695.813,617.163C2686.911,707.849 2751.606,756.517 2858.89,769.402C2840.406,791.249 2800.29,830.263 2690.289,775.014C2689.296,774.516 2659.711,751.814 2621.033,568.17C2616.359,598.184 2605.261,761.613 2526.825,781.358C2446.415,801.6 2424.981,786.468 2423.598,784.504C2537.769,733.408 2559.741,625.824 2558.748,545.985C2487.266,711.175 2436.969,694.819 2435.279,695.311C2414.739,701.295 2349.123,627.243 2368.148,594.391C2368.729,595.373 2429.527,634.134 2470.039,598.723C2489.294,581.892 2505.847,545.013 2507.004,538.488C2501.369,542.277 2473.379,574.418 2425.43,526.796C2361.354,463.156 2336.876,475.509 2318.941,486.796C2335.53,395.121 2509.173,486.867 2514.821,475.976C2488.946,472.673 2460.067,446.15 2488.168,411.193C2564.712,474.488 2538.413,393.041 2536.862,392.072" style="fill:rgb(255,118,101);stroke:black;stroke-width:4.17px;"/>
            </g>
            <g transform="matrix(1,0,0,1,-23.5,28)">
                <g transform="matrix(2.182171,0,0,2.252904,-736.063475,-1329.652472)">
                    <circle cx="1529.236" cy="710.445" r="14.445"/>
                </g>
                <g transform="matrix(0.565878,0,0,0.584221,1733.267986,-135.705906)">
                    <circle cx="1529.236" cy="710.445" r="14.445" style="fill:white;stroke:black;stroke-width:4.35px;"/>
                </g>
                <g transform="matrix(0.798689,0,0,0.824578,1382.055639,-326.816591)">
                    <circle cx="1529.236" cy="710.445" r="14.445" style="fill:white;stroke:black;stroke-width:3.08px;"/>
                </g>
            </g>
            <g transform="matrix(1,0,0,1,23.5,28)">
                <g transform="matrix(2.182171,0,0,2.252904,-644.852049,-1329.652472)">
                    <circle cx="1529.236" cy="710.445" r="14.445"/>
                </g>
                <g transform="matrix(0.565878,0,0,0.584221,1824.479413,-135.705906)">
                    <circle cx="1529.236" cy="710.445" r="14.445" style="fill:white;stroke:black;stroke-width:4.35px;"/>
                </g>
                <g transform="matrix(0.798689,0,0,0.824578,1473.267066,-326.816591)">
                    <circle cx="1529.236" cy="710.445" r="14.445" style="fill:white;stroke:black;stroke-width:3.08px;"/>
                </g>
            </g>
            <g transform="matrix(1,0,0,1,17.428603,-18.114195)">
                <path d="M2615.182,329.827C2619.474,355.627 2637.686,356.011 2643.156,331.728" style="fill:none;stroke:black;stroke-width:4.17px;"/>
            </g>
        </g>
    </g>
</svg>
